<mxfile host="app.diagrams.net" modified="2023-09-17T11:04:46.410Z" agent="Mozilla/5.0 (Windows NT 10.0; Win64; x64) AppleWebKit/537.36 (KHTML, like Gecko) Chrome/116.0.0.0 Safari/537.36" etag="c0tYdLUcAboDyU3yqFGO" version="21.6.6" type="github">
  <diagram name="第 1 页" id="9OSQlvmqz8tbQNN5Cx6f">
    <mxGraphModel dx="338" dy="204" grid="1" gridSize="10" guides="1" tooltips="1" connect="1" arrows="1" fold="1" page="1" pageScale="1" pageWidth="827" pageHeight="1169" math="0" shadow="0">
      <root>
        <mxCell id="0" />
        <mxCell id="1" parent="0" />
        <mxCell id="NIDjE-EhYZSAO3xe9EpV-18" value="" style="ellipse;whiteSpace=wrap;html=1;align=center;dashed=1;fillColor=none;" parent="1" vertex="1">
          <mxGeometry x="180" y="205" width="150" height="70" as="geometry" />
        </mxCell>
        <mxCell id="NIDjE-EhYZSAO3xe9EpV-20" value="" style="ellipse;whiteSpace=wrap;html=1;align=center;dashed=1;rotation=30;fillColor=none;" parent="1" vertex="1">
          <mxGeometry x="122.5" y="297.81" width="137.5" height="84.38" as="geometry" />
        </mxCell>
        <mxCell id="NIDjE-EhYZSAO3xe9EpV-19" value="" style="ellipse;whiteSpace=wrap;html=1;align=center;dashed=1;fillColor=none;" parent="1" vertex="1">
          <mxGeometry x="265" y="282.5" width="70" height="95" as="geometry" />
        </mxCell>
        <mxCell id="NIDjE-EhYZSAO3xe9EpV-1" value="" style="shape=waypoint;sketch=0;fillStyle=solid;size=6;pointerEvents=1;points=[];fillColor=none;resizable=0;rotatable=0;perimeter=centerPerimeter;snapToPoint=1;" parent="1" vertex="1">
          <mxGeometry x="260" y="210" width="20" height="20" as="geometry" />
        </mxCell>
        <mxCell id="NIDjE-EhYZSAO3xe9EpV-2" value="" style="shape=waypoint;sketch=0;fillStyle=solid;size=6;pointerEvents=1;points=[];fillColor=none;resizable=0;rotatable=0;perimeter=centerPerimeter;snapToPoint=1;" parent="1" vertex="1">
          <mxGeometry x="285" y="287.81" width="20" height="20" as="geometry" />
        </mxCell>
        <mxCell id="NIDjE-EhYZSAO3xe9EpV-3" value="" style="shape=waypoint;sketch=0;fillStyle=solid;size=6;pointerEvents=1;points=[];fillColor=none;resizable=0;rotatable=0;perimeter=centerPerimeter;snapToPoint=1;" parent="1" vertex="1">
          <mxGeometry x="275" y="350" width="20" height="20" as="geometry" />
        </mxCell>
        <mxCell id="NIDjE-EhYZSAO3xe9EpV-4" value="" style="shape=waypoint;sketch=0;fillStyle=solid;size=6;pointerEvents=1;points=[];fillColor=none;resizable=0;rotatable=0;perimeter=centerPerimeter;snapToPoint=1;" parent="1" vertex="1">
          <mxGeometry x="290" y="250" width="20" height="20" as="geometry" />
        </mxCell>
        <mxCell id="NIDjE-EhYZSAO3xe9EpV-5" value="" style="shape=waypoint;sketch=0;fillStyle=solid;size=6;pointerEvents=1;points=[];fillColor=none;resizable=0;rotatable=0;perimeter=centerPerimeter;snapToPoint=1;" parent="1" vertex="1">
          <mxGeometry x="305" y="290" width="20" height="20" as="geometry" />
        </mxCell>
        <mxCell id="NIDjE-EhYZSAO3xe9EpV-6" value="" style="shape=waypoint;sketch=0;fillStyle=solid;size=6;pointerEvents=1;points=[];fillColor=none;resizable=0;rotatable=0;perimeter=centerPerimeter;snapToPoint=1;" parent="1" vertex="1">
          <mxGeometry x="200" y="370" width="20" height="20" as="geometry" />
        </mxCell>
        <mxCell id="NIDjE-EhYZSAO3xe9EpV-7" value="" style="shape=waypoint;sketch=0;fillStyle=solid;size=6;pointerEvents=1;points=[];fillColor=none;resizable=0;rotatable=0;perimeter=centerPerimeter;snapToPoint=1;" parent="1" vertex="1">
          <mxGeometry x="180" y="297.81" width="20" height="20" as="geometry" />
        </mxCell>
        <mxCell id="NIDjE-EhYZSAO3xe9EpV-8" value="" style="shape=waypoint;sketch=0;fillStyle=solid;size=6;pointerEvents=1;points=[];fillColor=none;resizable=0;rotatable=0;perimeter=centerPerimeter;snapToPoint=1;" parent="1" vertex="1">
          <mxGeometry x="220" y="240" width="20" height="20" as="geometry" />
        </mxCell>
        <mxCell id="NIDjE-EhYZSAO3xe9EpV-9" value="" style="shape=waypoint;sketch=0;fillStyle=solid;size=6;pointerEvents=1;points=[];fillColor=none;resizable=0;rotatable=0;perimeter=centerPerimeter;snapToPoint=1;" parent="1" vertex="1">
          <mxGeometry x="190" y="220" width="20" height="20" as="geometry" />
        </mxCell>
        <mxCell id="NIDjE-EhYZSAO3xe9EpV-10" value="" style="shape=waypoint;sketch=0;fillStyle=solid;size=6;pointerEvents=1;points=[];fillColor=none;resizable=0;rotatable=0;perimeter=centerPerimeter;snapToPoint=1;" parent="1" vertex="1">
          <mxGeometry x="160" y="340" width="20" height="20" as="geometry" />
        </mxCell>
        <mxCell id="NIDjE-EhYZSAO3xe9EpV-11" value="" style="shape=waypoint;sketch=0;fillStyle=solid;size=6;pointerEvents=1;points=[];fillColor=none;resizable=0;rotatable=0;perimeter=centerPerimeter;snapToPoint=1;" parent="1" vertex="1">
          <mxGeometry x="130" y="300" width="20" height="20" as="geometry" />
        </mxCell>
        <mxCell id="NIDjE-EhYZSAO3xe9EpV-12" value="" style="shape=waypoint;sketch=0;fillStyle=solid;size=6;pointerEvents=1;points=[];fillColor=none;resizable=0;rotatable=0;perimeter=centerPerimeter;snapToPoint=1;" parent="1" vertex="1">
          <mxGeometry x="184" y="327.81" width="20" height="20" as="geometry" />
        </mxCell>
        <mxCell id="NIDjE-EhYZSAO3xe9EpV-13" value="" style="shape=waypoint;sketch=0;fillStyle=solid;size=6;pointerEvents=1;points=[];fillColor=none;resizable=0;rotatable=0;perimeter=centerPerimeter;snapToPoint=1;" parent="1" vertex="1">
          <mxGeometry x="270" y="230" width="20" height="20" as="geometry" />
        </mxCell>
        <mxCell id="NIDjE-EhYZSAO3xe9EpV-14" value="" style="shape=waypoint;sketch=0;fillStyle=solid;size=6;pointerEvents=1;points=[];fillColor=none;resizable=0;rotatable=0;perimeter=centerPerimeter;snapToPoint=1;" parent="1" vertex="1">
          <mxGeometry x="295" y="320" width="20" height="20" as="geometry" />
        </mxCell>
        <mxCell id="NIDjE-EhYZSAO3xe9EpV-16" value="" style="shape=waypoint;sketch=0;fillStyle=solid;size=6;pointerEvents=1;points=[];fillColor=none;resizable=0;rotatable=0;perimeter=centerPerimeter;snapToPoint=1;" parent="1" vertex="1">
          <mxGeometry x="230" y="330" width="20" height="20" as="geometry" />
        </mxCell>
        <mxCell id="NIDjE-EhYZSAO3xe9EpV-17" value="" style="verticalLabelPosition=bottom;verticalAlign=top;html=1;shape=mxgraph.basic.star;fillColor=#d5e8d4;strokeColor=#82b366;" parent="1" vertex="1">
          <mxGeometry x="240" y="290" width="10" height="10" as="geometry" />
        </mxCell>
        <mxCell id="NIDjE-EhYZSAO3xe9EpV-21" value="C&lt;sub&gt;1&lt;/sub&gt;" style="rounded=0;whiteSpace=wrap;html=1;fillColor=none;strokeColor=none;fontFamily=Times New Roman;" parent="1" vertex="1">
          <mxGeometry x="204" y="220" width="16" height="20" as="geometry" />
        </mxCell>
        <mxCell id="NIDjE-EhYZSAO3xe9EpV-22" value="C&lt;span style=&quot;font-size: 10px;&quot;&gt;&lt;sub&gt;6&lt;/sub&gt;&lt;/span&gt;" style="rounded=0;whiteSpace=wrap;html=1;fillColor=none;strokeColor=none;fontFamily=Times New Roman;" parent="1" vertex="1">
          <mxGeometry x="280" y="297.81" width="16" height="20" as="geometry" />
        </mxCell>
        <mxCell id="NIDjE-EhYZSAO3xe9EpV-23" value="C&lt;span style=&quot;font-size: 10px;&quot;&gt;&lt;sub&gt;3&lt;/sub&gt;&lt;/span&gt;" style="rounded=0;whiteSpace=wrap;html=1;fillColor=none;strokeColor=none;fontFamily=Times New Roman;" parent="1" vertex="1">
          <mxGeometry x="257" y="230" width="20" height="20" as="geometry" />
        </mxCell>
        <mxCell id="NIDjE-EhYZSAO3xe9EpV-24" value="C&lt;span style=&quot;font-size: 10px;&quot;&gt;&lt;sub&gt;4&lt;/sub&gt;&lt;/span&gt;" style="rounded=0;whiteSpace=wrap;html=1;fillColor=none;strokeColor=none;fontFamily=Times New Roman;" parent="1" vertex="1">
          <mxGeometry x="210" y="240" width="16" height="20" as="geometry" />
        </mxCell>
        <mxCell id="NIDjE-EhYZSAO3xe9EpV-26" value="C&lt;span style=&quot;font-size: 10px;&quot;&gt;&lt;sub&gt;5&lt;/sub&gt;&lt;/span&gt;" style="rounded=0;whiteSpace=wrap;html=1;fillColor=none;strokeColor=none;fontFamily=Times New Roman;" parent="1" vertex="1">
          <mxGeometry x="277" y="250" width="16" height="20" as="geometry" />
        </mxCell>
        <mxCell id="NIDjE-EhYZSAO3xe9EpV-27" value="C&lt;span style=&quot;font-size: 10px;&quot;&gt;&lt;sub&gt;2&lt;/sub&gt;&lt;/span&gt;" style="rounded=0;whiteSpace=wrap;html=1;fillColor=none;strokeColor=none;fontFamily=Times New Roman;" parent="1" vertex="1">
          <mxGeometry x="252" y="205" width="16" height="20" as="geometry" />
        </mxCell>
        <mxCell id="NIDjE-EhYZSAO3xe9EpV-35" value="C&lt;span style=&quot;font-size: 8.33333px;&quot;&gt;&lt;sub&gt;13&lt;/sub&gt;&lt;/span&gt;" style="rounded=0;whiteSpace=wrap;html=1;fillColor=none;strokeColor=none;fontFamily=Times New Roman;" parent="1" vertex="1">
          <mxGeometry x="200" y="330" width="20" height="20" as="geometry" />
        </mxCell>
        <mxCell id="NIDjE-EhYZSAO3xe9EpV-36" value="C&lt;span style=&quot;font-size: 8.33333px;&quot;&gt;&lt;sub&gt;9&lt;/sub&gt;&lt;/span&gt;" style="rounded=0;whiteSpace=wrap;html=1;fillColor=none;strokeColor=none;fontFamily=Times New Roman;" parent="1" vertex="1">
          <mxGeometry x="290" y="350" width="20" height="20" as="geometry" />
        </mxCell>
        <mxCell id="NIDjE-EhYZSAO3xe9EpV-37" value="C&lt;span style=&quot;font-size: 8.33333px;&quot;&gt;&lt;sub&gt;8&lt;/sub&gt;&lt;/span&gt;" style="rounded=0;whiteSpace=wrap;html=1;fillColor=none;strokeColor=none;fontFamily=Times New Roman;" parent="1" vertex="1">
          <mxGeometry x="305" y="330" width="20" height="20" as="geometry" />
        </mxCell>
        <mxCell id="NIDjE-EhYZSAO3xe9EpV-38" value="C&lt;span style=&quot;font-size: 10px;&quot;&gt;&lt;sub&gt;7&lt;/sub&gt;&lt;/span&gt;" style="rounded=0;whiteSpace=wrap;html=1;fillColor=none;strokeColor=none;fontFamily=Times New Roman;" parent="1" vertex="1">
          <mxGeometry x="310" y="300" width="20" height="20" as="geometry" />
        </mxCell>
        <mxCell id="NIDjE-EhYZSAO3xe9EpV-40" value="C&lt;span style=&quot;font-size: 8.33333px;&quot;&gt;&lt;sub&gt;12&lt;/sub&gt;&lt;/span&gt;" style="rounded=0;whiteSpace=wrap;html=1;fillColor=none;strokeColor=none;fontFamily=Times New Roman;" parent="1" vertex="1">
          <mxGeometry x="160" y="350" width="20" height="20" as="geometry" />
        </mxCell>
        <mxCell id="NIDjE-EhYZSAO3xe9EpV-41" value="C&lt;span style=&quot;font-size: 8.33333px;&quot;&gt;&lt;sub&gt;11&lt;/sub&gt;&lt;/span&gt;" style="rounded=0;whiteSpace=wrap;html=1;fillColor=none;strokeColor=none;fontFamily=Times New Roman;" parent="1" vertex="1">
          <mxGeometry x="210" y="362.19" width="20" height="20" as="geometry" />
        </mxCell>
        <mxCell id="NIDjE-EhYZSAO3xe9EpV-42" value="C&lt;span style=&quot;font-size: 8.33333px;&quot;&gt;&lt;sub&gt;10&lt;/sub&gt;&lt;/span&gt;" style="rounded=0;whiteSpace=wrap;html=1;fillColor=none;strokeColor=none;fontFamily=Times New Roman;" parent="1" vertex="1">
          <mxGeometry x="230" y="340" width="20" height="20" as="geometry" />
        </mxCell>
        <mxCell id="NIDjE-EhYZSAO3xe9EpV-45" value="C&lt;sub&gt;15&lt;br&gt;&lt;/sub&gt;" style="rounded=0;whiteSpace=wrap;html=1;fillColor=none;strokeColor=none;fontFamily=Times New Roman;" parent="1" vertex="1">
          <mxGeometry x="134" y="310" width="16" height="20" as="geometry" />
        </mxCell>
        <mxCell id="NIDjE-EhYZSAO3xe9EpV-46" value="C&lt;sub&gt;14&lt;/sub&gt;" style="rounded=0;whiteSpace=wrap;html=1;fillColor=none;strokeColor=none;fontFamily=Times New Roman;" parent="1" vertex="1">
          <mxGeometry x="180" y="307.81" width="16" height="20" as="geometry" />
        </mxCell>
        <mxCell id="siPaTcGhgwfhWnsP3a2p-2" value="" style="endArrow=classic;html=1;rounded=0;exitX=0.775;exitY=0.725;exitDx=0;exitDy=0;exitPerimeter=0;entryX=0;entryY=0.2;entryDx=0;entryDy=0;entryPerimeter=0;fillColor=#dae8fc;strokeColor=#3399FF;" edge="1" parent="1" source="NIDjE-EhYZSAO3xe9EpV-4" target="NIDjE-EhYZSAO3xe9EpV-13">
          <mxGeometry width="50" height="50" relative="1" as="geometry">
            <mxPoint x="400" y="440" as="sourcePoint" />
            <mxPoint x="450" y="390" as="targetPoint" />
          </mxGeometry>
        </mxCell>
        <mxCell id="siPaTcGhgwfhWnsP3a2p-3" value="" style="endArrow=classic;html=1;rounded=0;entryX=0.725;entryY=0.8;entryDx=0;entryDy=0;entryPerimeter=0;fillColor=#1ba1e2;strokeColor=#3399FF;" edge="1" parent="1" source="NIDjE-EhYZSAO3xe9EpV-8" target="NIDjE-EhYZSAO3xe9EpV-9">
          <mxGeometry width="50" height="50" relative="1" as="geometry">
            <mxPoint x="400" y="440" as="sourcePoint" />
            <mxPoint x="450" y="390" as="targetPoint" />
          </mxGeometry>
        </mxCell>
        <mxCell id="siPaTcGhgwfhWnsP3a2p-4" value="" style="endArrow=classic;html=1;rounded=0;exitX=1;exitY=0.75;exitDx=0;exitDy=0;entryX=0.825;entryY=0.575;entryDx=0;entryDy=0;entryPerimeter=0;fillColor=#dae8fc;strokeColor=#3399FF;" edge="1" parent="1" source="NIDjE-EhYZSAO3xe9EpV-27" target="NIDjE-EhYZSAO3xe9EpV-8">
          <mxGeometry width="50" height="50" relative="1" as="geometry">
            <mxPoint x="400" y="440" as="sourcePoint" />
            <mxPoint x="450" y="390" as="targetPoint" />
          </mxGeometry>
        </mxCell>
        <mxCell id="siPaTcGhgwfhWnsP3a2p-5" value="" style="endArrow=classic;html=1;rounded=0;exitX=0.9;exitY=0.65;exitDx=0;exitDy=0;exitPerimeter=0;entryX=0.8;entryY=0.6;entryDx=0;entryDy=0;entryPerimeter=0;fillColor=#1ba1e2;strokeColor=#3399FF;" edge="1" parent="1" source="NIDjE-EhYZSAO3xe9EpV-13" target="NIDjE-EhYZSAO3xe9EpV-1">
          <mxGeometry width="50" height="50" relative="1" as="geometry">
            <mxPoint x="400" y="440" as="sourcePoint" />
            <mxPoint x="450" y="390" as="targetPoint" />
          </mxGeometry>
        </mxCell>
        <mxCell id="siPaTcGhgwfhWnsP3a2p-6" value="" style="endArrow=classic;html=1;rounded=0;exitX=0.5;exitY=0;exitDx=0;exitDy=0;entryX=0.2;entryY=0.65;entryDx=0;entryDy=0;entryPerimeter=0;strokeColor=#3399FF;" edge="1" parent="1" source="NIDjE-EhYZSAO3xe9EpV-40" target="NIDjE-EhYZSAO3xe9EpV-6">
          <mxGeometry width="50" height="50" relative="1" as="geometry">
            <mxPoint x="400" y="440" as="sourcePoint" />
            <mxPoint x="450" y="390" as="targetPoint" />
          </mxGeometry>
        </mxCell>
        <mxCell id="siPaTcGhgwfhWnsP3a2p-7" value="" style="endArrow=classic;html=1;rounded=0;entryX=0.475;entryY=0.125;entryDx=0;entryDy=0;entryPerimeter=0;strokeColor=#3399FF;" edge="1" parent="1" source="NIDjE-EhYZSAO3xe9EpV-12" target="NIDjE-EhYZSAO3xe9EpV-10">
          <mxGeometry width="50" height="50" relative="1" as="geometry">
            <mxPoint x="410" y="430" as="sourcePoint" />
            <mxPoint x="450" y="390" as="targetPoint" />
          </mxGeometry>
        </mxCell>
        <mxCell id="siPaTcGhgwfhWnsP3a2p-8" value="" style="endArrow=classic;html=1;rounded=0;exitX=0.625;exitY=0.3;exitDx=0;exitDy=0;exitPerimeter=0;strokeColor=#3399FF;" edge="1" parent="1" source="NIDjE-EhYZSAO3xe9EpV-11" target="NIDjE-EhYZSAO3xe9EpV-12">
          <mxGeometry width="50" height="50" relative="1" as="geometry">
            <mxPoint x="400" y="440" as="sourcePoint" />
            <mxPoint x="450" y="390" as="targetPoint" />
          </mxGeometry>
        </mxCell>
        <mxCell id="siPaTcGhgwfhWnsP3a2p-9" value="" style="endArrow=classic;html=1;rounded=0;exitX=0.75;exitY=0.685;exitDx=0;exitDy=0;exitPerimeter=0;entryX=0.525;entryY=0.3;entryDx=0;entryDy=0;entryPerimeter=0;strokeColor=#3399FF;" edge="1" parent="1" source="NIDjE-EhYZSAO3xe9EpV-7" target="NIDjE-EhYZSAO3xe9EpV-11">
          <mxGeometry width="50" height="50" relative="1" as="geometry">
            <mxPoint x="400" y="440" as="sourcePoint" />
            <mxPoint x="450" y="390" as="targetPoint" />
          </mxGeometry>
        </mxCell>
        <mxCell id="siPaTcGhgwfhWnsP3a2p-10" value="" style="curved=1;endArrow=classic;html=1;rounded=0;exitX=0.675;exitY=0.725;exitDx=0;exitDy=0;exitPerimeter=0;entryX=0.5;entryY=0;entryDx=0;entryDy=0;strokeColor=#3399FF;" edge="1" parent="1" source="NIDjE-EhYZSAO3xe9EpV-6" target="NIDjE-EhYZSAO3xe9EpV-42">
          <mxGeometry width="50" height="50" relative="1" as="geometry">
            <mxPoint x="400" y="440" as="sourcePoint" />
            <mxPoint x="450" y="390" as="targetPoint" />
            <Array as="points">
              <mxPoint x="250" y="380" />
            </Array>
          </mxGeometry>
        </mxCell>
        <mxCell id="siPaTcGhgwfhWnsP3a2p-11" value="" style="curved=1;endArrow=classic;html=1;rounded=0;entryX=0;entryY=0;entryDx=0;entryDy=0;strokeColor=#3399FF;" edge="1" parent="1" source="NIDjE-EhYZSAO3xe9EpV-3" target="NIDjE-EhYZSAO3xe9EpV-37">
          <mxGeometry width="50" height="50" relative="1" as="geometry">
            <mxPoint x="400" y="382.19" as="sourcePoint" />
            <mxPoint x="430" y="342.19" as="targetPoint" />
            <Array as="points">
              <mxPoint x="300" y="340" />
            </Array>
          </mxGeometry>
        </mxCell>
        <mxCell id="siPaTcGhgwfhWnsP3a2p-12" value="" style="curved=1;endArrow=classic;html=1;rounded=0;entryX=0.25;entryY=0;entryDx=0;entryDy=0;strokeColor=#3399FF;exitX=0;exitY=0;exitDx=0;exitDy=0;" edge="1" parent="1" source="NIDjE-EhYZSAO3xe9EpV-37" target="NIDjE-EhYZSAO3xe9EpV-38">
          <mxGeometry width="50" height="50" relative="1" as="geometry">
            <mxPoint x="380" y="345" as="sourcePoint" />
            <mxPoint x="400" y="315" as="targetPoint" />
            <Array as="points">
              <mxPoint x="310" y="310" />
            </Array>
          </mxGeometry>
        </mxCell>
        <mxCell id="siPaTcGhgwfhWnsP3a2p-14" value="" style="curved=1;endArrow=classic;html=1;rounded=0;entryX=1;entryY=0;entryDx=0;entryDy=0;strokeColor=#3399FF;exitX=0.25;exitY=0;exitDx=0;exitDy=0;" edge="1" parent="1" source="NIDjE-EhYZSAO3xe9EpV-38" target="NIDjE-EhYZSAO3xe9EpV-22">
          <mxGeometry width="50" height="50" relative="1" as="geometry">
            <mxPoint x="380" y="297.81" as="sourcePoint" />
            <mxPoint x="400" y="267.81" as="targetPoint" />
            <Array as="points" />
          </mxGeometry>
        </mxCell>
        <mxCell id="siPaTcGhgwfhWnsP3a2p-15" value="" style="curved=1;endArrow=classic;html=1;rounded=0;fillColor=#d80073;strokeColor=#FF6666;exitX=0.5;exitY=0;exitDx=0;exitDy=0;" edge="1" parent="1" source="NIDjE-EhYZSAO3xe9EpV-42" target="NIDjE-EhYZSAO3xe9EpV-3">
          <mxGeometry width="50" height="50" relative="1" as="geometry">
            <mxPoint x="380" y="337.81" as="sourcePoint" />
            <mxPoint x="430" y="287.81" as="targetPoint" />
            <Array as="points">
              <mxPoint x="260" y="360" />
            </Array>
          </mxGeometry>
        </mxCell>
        <mxCell id="siPaTcGhgwfhWnsP3a2p-16" value="" style="curved=1;endArrow=classic;html=1;rounded=0;fillColor=#d80073;strokeColor=#FF6666;exitX=1;exitY=0;exitDx=0;exitDy=0;" edge="1" parent="1" source="NIDjE-EhYZSAO3xe9EpV-22" target="NIDjE-EhYZSAO3xe9EpV-4">
          <mxGeometry width="50" height="50" relative="1" as="geometry">
            <mxPoint x="380" y="280" as="sourcePoint" />
            <mxPoint x="425" y="300" as="targetPoint" />
            <Array as="points">
              <mxPoint x="320" y="280" />
            </Array>
          </mxGeometry>
        </mxCell>
        <mxCell id="siPaTcGhgwfhWnsP3a2p-17" value="" style="curved=1;endArrow=classic;html=1;rounded=0;fillColor=#d80073;strokeColor=#FF6666;exitX=0.308;exitY=0.5;exitDx=0;exitDy=0;exitPerimeter=0;entryX=0.75;entryY=0;entryDx=0;entryDy=0;" edge="1" parent="1" source="NIDjE-EhYZSAO3xe9EpV-9" target="NIDjE-EhYZSAO3xe9EpV-46">
          <mxGeometry width="50" height="50" relative="1" as="geometry">
            <mxPoint x="126" y="243" as="sourcePoint" />
            <mxPoint x="130" y="205" as="targetPoint" />
            <Array as="points">
              <mxPoint x="180" y="260" />
            </Array>
          </mxGeometry>
        </mxCell>
        <mxCell id="siPaTcGhgwfhWnsP3a2p-19" value="" style="curved=1;endArrow=classic;html=1;rounded=0;fillColor=#d80073;strokeColor=#FF6666;exitX=0.5;exitY=0;exitDx=0;exitDy=0;entryX=0.185;entryY=1;entryDx=0;entryDy=0;entryPerimeter=0;" edge="1" parent="1" source="NIDjE-EhYZSAO3xe9EpV-42" target="NIDjE-EhYZSAO3xe9EpV-17">
          <mxGeometry width="50" height="50" relative="1" as="geometry">
            <mxPoint x="360" y="240" as="sourcePoint" />
            <mxPoint x="405" y="260" as="targetPoint" />
            <Array as="points">
              <mxPoint x="230" y="310" />
            </Array>
          </mxGeometry>
        </mxCell>
        <mxCell id="siPaTcGhgwfhWnsP3a2p-20" value="" style="curved=1;endArrow=classic;html=1;rounded=0;fillColor=#d80073;strokeColor=#FF6666;exitX=0.5;exitY=0.76;exitDx=0;exitDy=0;exitPerimeter=0;entryX=0.683;entryY=0.417;entryDx=0;entryDy=0;entryPerimeter=0;" edge="1" parent="1" source="NIDjE-EhYZSAO3xe9EpV-17" target="NIDjE-EhYZSAO3xe9EpV-16">
          <mxGeometry width="50" height="50" relative="1" as="geometry">
            <mxPoint x="370" y="250" as="sourcePoint" />
            <mxPoint x="415" y="270" as="targetPoint" />
            <Array as="points">
              <mxPoint x="250" y="310" />
              <mxPoint x="250" y="320" />
            </Array>
          </mxGeometry>
        </mxCell>
      </root>
    </mxGraphModel>
  </diagram>
</mxfile>
